<svg width="22" height="16" viewBox="0 0 22 16" fill="none" xmlns="http://www.w3.org/2000/svg">
<path d="M0 15.5V0.5H2V10.5H10V2.5H18C19.1 2.5 20.0417 2.89167 20.825 3.675C21.6083 4.45833 22 5.4 22 6.5V15.5H20V12.5H2V15.5H0ZM6 9.5C5.16667 9.5 4.45833 9.20833 3.875 8.625C3.29167 8.04167 3 7.33333 3 6.5C3 5.66667 3.29167 4.95833 3.875 4.375C4.45833 3.79167 5.16667 3.5 6 3.5C6.83333 3.5 7.54167 3.79167 8.125 4.375C8.70833 4.95833 9 5.66667 9 6.5C9 7.33333 8.70833 8.04167 8.125 8.625C7.54167 9.20833 6.83333 9.5 6 9.5Z" fill="black"/>
</svg>
