<svg width="16" height="16" viewBox="0 0 16 16" fill="none" xmlns="http://www.w3.org/2000/svg">
<path d="M12 1.07191C13.2162 1.77405 14.2261 2.78396 14.9282 4.00011C15.6304 5.21626 16 6.59582 16 8.00011C16 9.4044 15.6303 10.7839 14.9282 12.0001C14.226 13.2162 13.2161 14.2261 11.9999 14.9283C10.7837 15.6304 9.40418 16 7.99987 16C6.59557 16 5.21602 15.6303 3.99987 14.9281C2.78372 14.226 1.77383 13.216 1.07171 11.9999C0.369584 10.7837 -3.56717e-05 9.40415 2.58212e-09 7.99986L0.00400009 7.74066C0.0488026 6.35906 0.450838 5.01265 1.17091 3.83268C1.89099 2.65271 2.90452 1.67946 4.11271 1.00781C5.3209 0.336162 6.68252 -0.0109685 8.06481 0.000264195C9.44709 0.0114969 10.8029 0.380709 12 1.07191ZM8 3.19989C7.78783 3.19989 7.58434 3.28418 7.43431 3.4342C7.28429 3.58423 7.2 3.78771 7.2 3.99988C6.56348 3.99988 5.95303 4.25274 5.50294 4.70282C5.05286 5.15291 4.8 5.76335 4.8 6.39987C4.8 7.03638 5.05286 7.64683 5.50294 8.09691C5.95303 8.547 6.56348 8.79985 7.2 8.79985V10.3998C7.06733 10.4072 6.93486 10.382 6.81413 10.3265C6.69339 10.271 6.58803 10.1869 6.5072 10.0814L6.4528 10.0006C6.34335 9.82412 6.16953 9.69709 5.96811 9.64641C5.76669 9.59573 5.55345 9.62537 5.37349 9.72907C5.19353 9.83276 5.06095 10.0024 5.00379 10.2021C4.94663 10.4017 4.96937 10.6158 5.0672 10.799C5.27139 11.1532 5.56265 11.4493 5.91336 11.6593C6.26408 11.8693 6.66262 11.9862 7.0712 11.999H7.2C7.19983 12.1951 7.27168 12.3844 7.40191 12.531C7.53213 12.6776 7.71166 12.7713 7.9064 12.7942L8 12.7998C8.21217 12.7998 8.41566 12.7155 8.56569 12.5655C8.71571 12.4155 8.8 12.212 8.8 11.9998L8.9408 11.9958C9.56448 11.9598 10.1495 11.682 10.5716 11.2214C10.9937 10.7609 11.2196 10.1539 11.2013 9.52941C11.1829 8.90496 10.9218 8.31227 10.4735 7.87727C10.0251 7.44228 9.42472 7.19926 8.8 7.19986V5.59987C9.0864 5.59027 9.3368 5.71187 9.4928 5.91827L9.5472 5.99907C9.65665 6.17559 9.83047 6.30262 10.0319 6.3533C10.2333 6.40398 10.4465 6.37434 10.6265 6.27064C10.8065 6.16695 10.939 5.99733 10.9962 5.79765C11.0534 5.59797 11.0306 5.38389 10.9328 5.20068C10.7287 4.8464 10.4375 4.55013 10.0868 4.33998C9.73605 4.12983 9.33746 4.01277 8.9288 3.99988H8.8C8.8 3.78771 8.71571 3.58423 8.56569 3.4342C8.41566 3.28418 8.21217 3.19989 8 3.19989ZM8.8 8.79985C9.01217 8.79985 9.21566 8.88413 9.36569 9.03416C9.51571 9.18419 9.6 9.38767 9.6 9.59984C9.6 9.81201 9.51571 10.0155 9.36569 10.1655C9.21566 10.3156 9.01217 10.3998 8.8 10.3998V8.79985ZM7.2 5.59987V7.19986C6.98783 7.19986 6.78434 7.11558 6.63432 6.96555C6.48429 6.81552 6.4 6.61204 6.4 6.39987C6.4 6.1877 6.48429 5.98421 6.63432 5.83419C6.78434 5.68416 6.98783 5.59987 7.2 5.59987Z" fill="#D9D9D9"/>
</svg>
