<svg width="35" height="35" viewBox="0 0 35 35" fill="none" xmlns="http://www.w3.org/2000/svg">
<path d="M31.7998 14.6438H30.6251V14.5833H17.5001V20.4167H25.7419C24.5395 23.8124 21.3085 26.25 17.5001 26.25C12.6679 26.25 8.75008 22.3322 8.75008 17.5C8.75008 12.6678 12.6679 8.74999 17.5001 8.74999C19.7306 8.74999 21.7599 9.59145 23.305 10.9659L27.4299 6.84103C24.8253 4.41364 21.3413 2.91666 17.5001 2.91666C9.44644 2.91666 2.91675 9.44634 2.91675 17.5C2.91675 25.5536 9.44644 32.0833 17.5001 32.0833C25.5537 32.0833 32.0834 25.5536 32.0834 17.5C32.0834 16.5222 31.9828 15.5677 31.7998 14.6438Z" fill="#FFC107"/>
<path d="M4.59814 10.7122L9.3895 14.226C10.686 11.0162 13.8257 8.74999 17.5 8.74999C19.7305 8.74999 21.7598 9.59145 23.3049 10.9659L27.4298 6.84103C24.8252 4.41364 21.3413 2.91666 17.5 2.91666C11.8986 2.91666 7.04085 6.07905 4.59814 10.7122Z" fill="#FF3D00"/>
<path d="M17.4999 32.0833C21.2668 32.0833 24.6895 30.6418 27.2773 28.2975L22.7638 24.4781C21.2507 25.6295 19.4013 26.2521 17.4999 26.25C13.7068 26.25 10.486 23.8314 9.27271 20.4561L4.51709 24.1201C6.93063 28.8429 11.8321 32.0833 17.4999 32.0833Z" fill="#4CAF50"/>
<path d="M31.7997 14.6439H30.625V14.5833H17.5V20.4167H25.7418C25.1666 22.0328 24.1306 23.445 22.7617 24.4789L22.7639 24.4774L27.2774 28.2968C26.958 28.587 32.0833 24.7917 32.0833 17.5C32.0833 16.5222 31.9827 15.5677 31.7997 14.6439Z" fill="#1976D2"/>
</svg>
