<svg width="22" height="21" viewBox="0 0 22 21" fill="none" xmlns="http://www.w3.org/2000/svg">
<path d="M21.3139 3.32233C20.3925 1.41689 17.7383 -0.142099 14.651 0.765582C13.1757 1.19499 11.8886 2.11587 10.9998 3.37776C10.1111 2.11587 8.82396 1.19499 7.34869 0.765582C4.25448 -0.128241 1.60722 1.41689 0.685831 3.32233C-0.606859 5.98994 -0.0705301 8.99014 2.28107 12.2398C4.12384 14.7827 6.75735 17.3602 10.5804 20.3535C10.7012 20.4484 10.8501 20.5 11.0033 20.5C11.1565 20.5 11.3053 20.4484 11.4262 20.3535C15.2423 17.3671 17.8827 14.8104 19.7255 12.2398C22.0702 8.99014 22.6066 5.98994 21.3139 3.32233Z" fill="#FF7A7A"/>
</svg>
