<svg width="10" height="9" viewBox="0 0 10 9" fill="none" xmlns="http://www.w3.org/2000/svg">
<path d="M1.11111 3.375L1.94444 0.84375H8.05556L8.88889 3.375M8.05556 6.1875C7.83454 6.1875 7.62258 6.09861 7.4663 5.94037C7.31002 5.78214 7.22222 5.56753 7.22222 5.34375C7.22222 5.11997 7.31002 4.90536 7.4663 4.74713C7.62258 4.58889 7.83454 4.5 8.05556 4.5C8.27657 4.5 8.48853 4.58889 8.64481 4.74713C8.80109 4.90536 8.88889 5.11997 8.88889 5.34375C8.88889 5.56753 8.80109 5.78214 8.64481 5.94037C8.48853 6.09861 8.27657 6.1875 8.05556 6.1875ZM1.94444 6.1875C1.72343 6.1875 1.51147 6.09861 1.35519 5.94037C1.19891 5.78214 1.11111 5.56753 1.11111 5.34375C1.11111 5.11997 1.19891 4.90536 1.35519 4.74713C1.51147 4.58889 1.72343 4.5 1.94444 4.5C2.16546 4.5 2.37742 4.58889 2.5337 4.74713C2.68998 4.90536 2.77778 5.11997 2.77778 5.34375C2.77778 5.56753 2.68998 5.78214 2.5337 5.94037C2.37742 6.09861 2.16546 6.1875 1.94444 6.1875ZM8.84445 0.5625C8.73333 0.23625 8.42222 0 8.05556 0H1.94444C1.57778 0 1.26667 0.23625 1.15556 0.5625L0 3.9375V8.4375C0 8.58668 0.0585316 8.72976 0.162718 8.83525C0.266905 8.94074 0.408213 9 0.555556 9H1.11111C1.25845 9 1.39976 8.94074 1.50395 8.83525C1.60814 8.72976 1.66667 8.58668 1.66667 8.4375V7.875H8.33333V8.4375C8.33333 8.58668 8.39186 8.72976 8.49605 8.83525C8.60024 8.94074 8.74155 9 8.88889 9H9.44444C9.59179 9 9.7331 8.94074 9.83728 8.83525C9.94147 8.72976 10 8.58668 10 8.4375V3.9375L8.84445 0.5625Z" fill="black"/>
</svg>
