<svg width="6" height="10" viewBox="0 0 6 10" fill="none" xmlns="http://www.w3.org/2000/svg">
<path d="M3.74769 4.49541H6V3.66972H4.32923L3.40615 2.1422C3.26769 1.91284 3.01846 1.75688 2.73231 1.75688C2.64923 1.75688 2.57538 1.77064 2.50154 1.79358L0 2.56881V4.95413H0.830769V3.27064L1.80462 2.96789L0 10H0.830769L2.15538 6.27982L3.23077 7.70642V10H4.06154V7.05963L2.91231 4.97706L3.24923 3.66055M3.69231 1.65138C4.15385 1.65138 4.52308 1.2844 4.52308 0.825688C4.52308 0.366972 4.15385 0 3.69231 0C3.23077 0 2.86154 0.366972 2.86154 0.825688C2.86154 1.2844 3.23077 1.65138 3.69231 1.65138Z" fill="black"/>
</svg>
