<svg width="8" height="10" viewBox="0 0 8 10" fill="none" xmlns="http://www.w3.org/2000/svg">
<path d="M7 4.73684H1V2.10526H7M6.25 7.89474C6.05109 7.89474 5.86032 7.81156 5.71967 7.66351C5.57902 7.51545 5.5 7.31464 5.5 7.10526C5.5 6.89588 5.57902 6.69508 5.71967 6.54702C5.86032 6.39897 6.05109 6.31579 6.25 6.31579C6.44891 6.31579 6.63968 6.39897 6.78033 6.54702C6.92098 6.69508 7 6.89588 7 7.10526C7 7.31464 6.92098 7.51545 6.78033 7.66351C6.63968 7.81156 6.44891 7.89474 6.25 7.89474ZM1.75 7.89474C1.55109 7.89474 1.36032 7.81156 1.21967 7.66351C1.07902 7.51545 1 7.31464 1 7.10526C1 6.89588 1.07902 6.69508 1.21967 6.54702C1.36032 6.39897 1.55109 6.31579 1.75 6.31579C1.94891 6.31579 2.13968 6.39897 2.28033 6.54702C2.42098 6.69508 2.5 6.89588 2.5 7.10526C2.5 7.31464 2.42098 7.51545 2.28033 7.66351C2.13968 7.81156 1.94891 7.89474 1.75 7.89474ZM0 7.36842C0 7.83158 0.195 8.24737 0.5 8.53684V9.47368C0.5 9.61327 0.552679 9.74714 0.646447 9.84585C0.740215 9.94455 0.867392 10 1 10H1.5C1.63261 10 1.75979 9.94455 1.85355 9.84585C1.94732 9.74714 2 9.61327 2 9.47368V8.94737H6V9.47368C6 9.61327 6.05268 9.74714 6.14645 9.84585C6.24021 9.94455 6.36739 10 6.5 10H7C7.13261 10 7.25979 9.94455 7.35355 9.84585C7.44732 9.74714 7.5 9.61327 7.5 9.47368V8.53684C7.805 8.24737 8 7.83158 8 7.36842V2.10526C8 0.263158 6.21 0 4 0C1.79 0 0 0.263158 0 2.10526V7.36842Z" fill="black"/>
</svg>
