<svg width="10" height="10" viewBox="0 0 10 10" fill="none" xmlns="http://www.w3.org/2000/svg">
<path d="M10 9.99301L9.997 4.98521C9.997 2.23121 7.75751 0 4.9985 0C2.23948 0 0 2.23281 0 4.98701L0.040241 10L1.19101 9.9972V4.98721C1.19101 2.84073 2.8451 1.10092 4.99489 1.10092C7.14509 1.10092 8.79878 2.84093 8.79878 4.98741V9.99301H10ZM6.63597 8.17966L6.61755 8.14608L6.62716 8.13369L6.63597 8.1213C6.80828 8.05056 6.96437 7.9633 7.10425 7.85951C7.24399 7.7552 7.32567 7.60252 7.37412 7.40068C7.37953 7.3773 7.39735 7.32294 7.39735 7.24001V3.07274C7.39929 2.9641 7.37256 2.85687 7.31987 2.76179C7.26061 2.65388 7.19234 2.55735 7.10164 2.47162C7.01375 2.38669 6.91726 2.32754 6.80694 2.27058C6.69683 2.21423 6.59393 2.19924 6.49242 2.19924H3.50498C3.40968 2.19924 3.30717 2.21263 3.19666 2.26619C3.08635 2.31954 2.98484 2.38149 2.89315 2.46503C2.8056 2.54471 2.73151 2.63796 2.67373 2.74121C2.61977 2.83391 2.5917 2.93935 2.59244 3.04656V7.27598C2.59244 7.34652 2.60326 7.42146 2.63809 7.4978C2.67393 7.57554 2.71437 7.64808 2.76782 7.71523C2.82148 7.78477 2.87774 7.84732 2.9404 7.90328C3.00286 7.95963 3.06212 8.0056 3.12218 8.04077C3.15115 8.05329 3.203 8.07134 3.27774 8.09492C3.35162 8.11871 3.38565 8.13289 3.38005 8.14409L2.1578 9.99301H2.87073L3.76324 8.79397H6.22615L7.11746 9.99301H7.8394L6.63597 8.17966ZM3.99387 2.59892C3.99387 2.48901 4.08397 2.39908 4.19408 2.39908H5.79571C5.90582 2.39908 5.99592 2.48901 5.99592 2.59892V2.79876C5.99592 2.90867 5.90582 2.9986 5.79571 2.9986H4.19408C4.08397 2.9986 3.99387 2.90867 3.99387 2.79876V2.59892ZM3.20587 3.57514C3.2325 3.51878 3.25332 3.46763 3.29476 3.41946C3.337 3.3719 3.37925 3.30356 3.4355 3.27378C3.49176 3.244 3.54361 3.19844 3.60308 3.19844H6.3773C6.43076 3.19844 6.48381 3.24141 6.53767 3.26399C6.59132 3.28797 6.64017 3.33653 6.68522 3.3777C6.72966 3.41906 6.74728 3.47202 6.77491 3.51938C6.80114 3.56575 6.79673 3.6245 6.79673 3.67786V4.6219C6.79673 4.67586 6.79934 4.72602 6.77011 4.77678C6.74048 4.82874 6.71044 4.8735 6.6624 4.91207C6.61455 4.94984 6.5691 4.95963 6.51565 4.98261C6.46199 5.00779 6.41274 4.997 6.35989 4.997H3.62089C3.61429 4.997 3.59947 5.01559 3.57585 5.01079L3.52179 5.003C3.42109 4.98541 3.35923 4.93725 3.28155 4.84812C3.20447 4.75839 3.19306 4.66687 3.19306 4.55975V3.7496C3.19306 3.69025 3.17944 3.63189 3.20587 3.57514ZM3.96404 7.42706C3.87215 7.52198 3.75703 7.56935 3.62089 7.56935C3.48409 7.56935 3.37244 7.52192 3.28595 7.42706C3.19946 7.33233 3.15662 7.21563 3.15662 7.07954C3.15689 6.95484 3.20153 6.84666 3.29056 6.755C3.33282 6.7101 3.38407 6.67457 3.44098 6.65071C3.49789 6.62685 3.55918 6.6152 3.62089 6.61651C3.75703 6.61651 3.87195 6.66027 3.96404 6.745C4.05634 6.83253 4.10258 6.94524 4.10258 7.08893C4.10258 7.21976 4.0564 7.33247 3.96404 7.42706ZM6.00673 7.42706C5.91503 7.33233 5.86879 7.21563 5.86879 7.07954C5.86879 6.94245 5.91744 6.83233 6.01574 6.7448C6.11065 6.66094 6.23333 6.61516 6.36009 6.61631C6.49609 6.61631 6.60727 6.66247 6.69363 6.7548C6.78038 6.84646 6.82369 6.95464 6.82356 7.07934C6.82356 7.21563 6.77932 7.33233 6.68922 7.42686C6.60033 7.52172 6.48735 7.56914 6.35028 7.56914C6.21374 7.56941 6.09922 7.52205 6.00673 7.42706Z" fill="black"/>
</svg>
