<svg width="17" height="28" viewBox="0 0 17 28" fill="none" xmlns="http://www.w3.org/2000/svg">
<path fill-rule="evenodd" clip-rule="evenodd" d="M15.7228 15.4727C16.1134 15.0821 16.3328 14.5522 16.3328 13.9998C16.3328 13.4474 16.1134 12.9176 15.7228 12.5269L3.93738 0.741486C3.7452 0.542507 3.51531 0.383793 3.26114 0.274608C3.00696 0.165423 2.73359 0.107951 2.45696 0.105547C2.18034 0.103144 1.90601 0.155856 1.64997 0.260608C1.39394 0.36536 1.16133 0.520054 0.965719 0.715664C0.770109 0.911273 0.615416 1.14388 0.510664 1.39991C0.405911 1.65595 0.3532 1.93028 0.355604 2.20691C0.358008 2.48353 0.41548 2.7569 0.524665 3.01108C0.63385 3.26525 0.792562 3.49514 0.991542 3.68732L11.304 13.9998L0.991542 24.3123C0.612046 24.7052 0.402058 25.2315 0.406804 25.7777C0.411551 26.324 0.630652 26.8465 1.01692 27.2328C1.40319 27.619 1.92571 27.8381 2.47196 27.8429C3.0182 27.8476 3.54446 27.6377 3.93738 27.2582L15.7228 15.4727Z" fill="black"/>
</svg>
