<svg width="17" height="28" viewBox="0 0 17 28" fill="none" xmlns="http://www.w3.org/2000/svg">
<path fill-rule="evenodd" clip-rule="evenodd" d="M1.27696 15.4727C0.8864 15.0821 0.666992 14.5522 0.666992 13.9998C0.666992 13.4474 0.8864 12.9176 1.27696 12.5269L13.0624 0.741486C13.2546 0.542507 13.4844 0.383793 13.7386 0.274608C13.9928 0.165423 14.2662 0.107951 14.5428 0.105547C14.8194 0.103144 15.0937 0.155856 15.3498 0.260608C15.6058 0.36536 15.8384 0.520054 16.034 0.715664C16.2296 0.911273 16.3843 1.14388 16.4891 1.39991C16.5938 1.65595 16.6466 1.93028 16.6442 2.20691C16.6417 2.48353 16.5843 2.7569 16.4751 3.01108C16.3659 3.26525 16.2072 3.49514 16.0082 3.68732L5.69571 13.9998L16.0082 24.3123C16.3877 24.7052 16.5977 25.2315 16.593 25.7777C16.5882 26.324 16.3691 26.8465 15.9828 27.2328C15.5966 27.619 15.074 27.8381 14.5278 27.8429C13.9816 27.8476 13.4553 27.6377 13.0624 27.2582L1.27696 15.4727Z" fill="black"/>
</svg>
