<svg width="26" height="26" viewBox="0 0 26 26" fill="none" xmlns="http://www.w3.org/2000/svg">
<path d="M9.61593 19.2319C6.9284 19.2319 4.65411 18.3008 2.79306 16.4388C0.932006 14.5768 0.000987032 12.3025 7.82738e-07 9.61593C-0.000985467 6.92939 0.930034 4.6551 2.79306 2.79306C4.65608 0.931019 6.93038 0 9.61593 0C12.3015 0 14.5763 0.931019 16.4403 2.79306C18.3043 4.6551 19.2348 6.92939 19.2319 9.61593C19.2319 10.7008 19.0593 11.724 18.7141 12.6856C18.3689 13.6472 17.9004 14.4979 17.3087 15.2376L25.5932 23.522C25.8644 23.7933 26 24.1385 26 24.5576C26 24.9768 25.8644 25.322 25.5932 25.5932C25.322 25.8644 24.9768 26 24.5576 26C24.1385 26 23.7933 25.8644 23.522 25.5932L15.2376 17.3087C14.4979 17.9004 13.6472 18.3689 12.6856 18.7141C11.724 19.0593 10.7008 19.2319 9.61593 19.2319ZM9.61593 16.2731C11.4651 16.2731 13.0372 15.6261 14.3322 14.3322C15.6271 13.0382 16.2741 11.4661 16.2731 9.61593C16.2721 7.76573 15.6251 6.19414 14.3322 4.90117C13.0392 3.60819 11.4671 2.96072 9.61593 2.95875C7.76474 2.95678 6.19315 3.60425 4.90117 4.90117C3.60918 6.19808 2.96171 7.76967 2.95875 9.61593C2.95579 11.4622 3.60326 13.0343 4.90117 14.3322C6.19907 15.6301 7.77066 16.2771 9.61593 16.2731Z" fill="black"/>
</svg>
