<svg width="14" height="18" viewBox="0 0 14 18" fill="none" xmlns="http://www.w3.org/2000/svg">
<path d="M1.75 0C1.28587 0 0.840752 0.184374 0.512563 0.512563C0.184374 0.840752 0 1.28587 0 1.75V15.75C0 16.2141 0.184374 16.6592 0.512563 16.9874C0.840752 17.3156 1.28587 17.5 1.75 17.5H12.25C12.7141 17.5 13.1592 17.3156 13.4874 16.9874C13.8156 16.6592 14 16.2141 14 15.75V1.75C14 1.28587 13.8156 0.840752 13.4874 0.512563C13.1592 0.184374 12.7141 0 12.25 0H1.75ZM7 2.625C8.16032 2.625 9.27312 3.08594 10.0936 3.90641C10.9141 4.72688 11.375 5.83968 11.375 7C11.375 8.16032 10.9141 9.27312 10.0936 10.0936C9.27312 10.9141 8.16032 11.375 7 11.375C5.83968 11.375 4.72688 10.9141 3.90641 10.0936C3.08594 9.27312 2.625 8.16032 2.625 7C2.625 5.83968 3.08594 4.72688 3.90641 3.90641C4.72688 3.08594 5.83968 2.625 7 2.625ZM7 3.5C6.64125 4.0425 6.34375 4.62875 6.16 5.25H7.84C7.65209 4.62677 7.36873 4.03643 7 3.5ZM5.8625 3.6925C5.0575 3.96375 4.375 4.52375 3.9725 5.25H5.25C5.4075 4.7075 5.6 4.1825 5.8625 3.6925ZM8.12875 3.6925C8.39125 4.1825 8.5925 4.7075 8.75 5.25H10.0275C9.625 4.52375 8.93375 3.9725 8.12875 3.6925ZM3.61375 6.125C3.54375 6.405 3.5 6.69375 3.5 7C3.5 7.30625 3.54375 7.595 3.61375 7.875H5.0925C5.0575 7.58625 5.03125 7.2975 5.03125 7C5.03125 6.7025 5.0575 6.41375 5.0925 6.125H3.61375ZM5.97625 6.125C5.9325 6.405 5.90625 6.7025 5.90625 7C5.90625 7.2975 5.9325 7.58625 5.97625 7.875H8.02375C8.05875 7.58625 8.09375 7.2975 8.09375 7C8.09375 6.7025 8.05875 6.405 8.02375 6.125H5.97625ZM8.9075 6.125C8.9425 6.41375 8.96875 6.7025 8.96875 7C8.96875 7.2975 8.9425 7.58625 8.9075 7.875H10.3862C10.4562 7.595 10.5 7.30625 10.5 7C10.5 6.69375 10.4562 6.405 10.3862 6.125H8.9075ZM3.9725 8.75C4.375 9.47625 5.0575 10.0275 5.8625 10.3075C5.6 9.8175 5.4075 9.30125 5.25 8.75H3.9725ZM6.16 8.75C6.34375 9.38 6.64125 9.9575 7 10.5C7.3675 9.9575 7.65625 9.38 7.84 8.75H6.16ZM8.75 8.75C8.5925 9.30125 8.39125 9.8175 8.12875 10.3075C8.93375 10.0275 9.625 9.47625 10.0275 8.75H8.75ZM2.625 13.125H11.375V14.875H2.625V13.125Z" fill="#AAAAAA"/>
</svg>
