<svg width="14" height="18" viewBox="0 0 14 18" fill="none" xmlns="http://www.w3.org/2000/svg">
<path d="M1.75 0.25C1.28587 0.25 0.840752 0.434374 0.512563 0.762563C0.184374 1.09075 0 1.53587 0 2V16C0 16.4641 0.184374 16.9092 0.512563 17.2374C0.840752 17.5656 1.28587 17.75 1.75 17.75H12.25C12.7141 17.75 13.1592 17.5656 13.4874 17.2374C13.8156 16.9092 14 16.4641 14 16V2C14 1.53587 13.8156 1.09075 13.4874 0.762563C13.1592 0.434374 12.7141 0.25 12.25 0.25H1.75ZM7 2.875C8.16032 2.875 9.27312 3.33594 10.0936 4.15641C10.9141 4.97688 11.375 6.08968 11.375 7.25C11.375 8.41032 10.9141 9.52312 10.0936 10.3436C9.27312 11.1641 8.16032 11.625 7 11.625C5.83968 11.625 4.72688 11.1641 3.90641 10.3436C3.08594 9.52312 2.625 8.41032 2.625 7.25C2.625 6.08968 3.08594 4.97688 3.90641 4.15641C4.72688 3.33594 5.83968 2.875 7 2.875ZM7 3.75C6.64125 4.2925 6.34375 4.87875 6.16 5.5H7.84C7.65209 4.87677 7.36873 4.28643 7 3.75ZM5.8625 3.9425C5.0575 4.21375 4.375 4.77375 3.9725 5.5H5.25C5.4075 4.9575 5.6 4.4325 5.8625 3.9425ZM8.12875 3.9425C8.39125 4.4325 8.5925 4.9575 8.75 5.5H10.0275C9.625 4.77375 8.93375 4.2225 8.12875 3.9425ZM3.61375 6.375C3.54375 6.655 3.5 6.94375 3.5 7.25C3.5 7.55625 3.54375 7.845 3.61375 8.125H5.0925C5.0575 7.83625 5.03125 7.5475 5.03125 7.25C5.03125 6.9525 5.0575 6.66375 5.0925 6.375H3.61375ZM5.97625 6.375C5.9325 6.655 5.90625 6.9525 5.90625 7.25C5.90625 7.5475 5.9325 7.83625 5.97625 8.125H8.02375C8.05875 7.83625 8.09375 7.5475 8.09375 7.25C8.09375 6.9525 8.05875 6.655 8.02375 6.375H5.97625ZM8.9075 6.375C8.9425 6.66375 8.96875 6.9525 8.96875 7.25C8.96875 7.5475 8.9425 7.83625 8.9075 8.125H10.3862C10.4562 7.845 10.5 7.55625 10.5 7.25C10.5 6.94375 10.4562 6.655 10.3862 6.375H8.9075ZM3.9725 9C4.375 9.72625 5.0575 10.2775 5.8625 10.5575C5.6 10.0675 5.4075 9.55125 5.25 9H3.9725ZM6.16 9C6.34375 9.63 6.64125 10.2075 7 10.75C7.3675 10.2075 7.65625 9.63 7.84 9H6.16ZM8.75 9C8.5925 9.55125 8.39125 10.0675 8.12875 10.5575C8.93375 10.2775 9.625 9.72625 10.0275 9H8.75ZM2.625 13.375H11.375V15.125H2.625V13.375Z" fill="#8A8A8A"/>
</svg>
