<svg width="14" height="20" viewBox="0 0 14 20" fill="none" xmlns="http://www.w3.org/2000/svg">
<path d="M13.6111 5.77858H11.6667V1.52601C11.6667 1.11921 11.3186 0.789551 10.8889 0.789551C10.4592 0.789551 10.1111 1.11921 10.1111 1.52601V5.77858H3.88889V1.52601C3.88889 1.11921 3.54083 0.789551 3.11072 0.789551C2.68061 0.789551 2.33333 1.11921 2.33333 1.52601V5.77858H0.388889C0.173833 5.77858 0 6.11208 0 6.31548V8.15797C0 10.3681 3.88889 12.9344 3.88889 16.4843V17.6755H5.44444V19.2106H8.55556V17.6755H10.1111V16.4843C10.1111 12.9344 14 10.3677 14 8.15797V6.31548C14 6.11208 13.8262 5.77858 13.6111 5.77858ZM6.57494 12.0678C6.60022 11.9872 6.54889 11.9189 6.45983 11.9189H4.949C4.85956 11.9189 4.83428 11.869 4.89106 11.8042C4.89106 11.8042 8.00411 7.90545 8.06478 7.83023C8.11067 7.75885 8.16122 7.78379 8.14528 7.86592C8.12117 7.96992 7.45656 10.6298 7.45656 10.6298C7.42428 10.7081 7.47094 10.7676 7.55922 10.7676H9.07083C9.15989 10.7676 9.18828 10.8267 9.13383 10.8935C9.13383 10.8935 6.01611 14.8855 5.96011 14.9523C5.90411 15.019 5.85161 14.9987 5.88 14.8851L6.57494 12.0678Z" fill="#AAAAAA"/>
</svg>
