<svg width="16" height="12" viewBox="0 0 16 12" fill="none" xmlns="http://www.w3.org/2000/svg">
<path d="M15.3203 7.64637V7.63954C15.3192 7.63441 15.3176 7.62938 15.3156 7.62451C15.2711 7.5008 15.2194 7.3799 15.1608 7.26247L12.3744 0.808469C12.3476 0.746304 12.3096 0.689781 12.2625 0.641792C11.4248 -0.212111 10.0664 -0.212111 9.22876 0.641792C9.12855 0.744032 9.07216 0.882557 9.07191 1.02706V2.73483H6.92699V1.02706C6.92711 0.882081 6.87068 0.742996 6.77015 0.640427C5.93247 -0.213476 4.57411 -0.213476 3.73642 0.640427C3.68928 0.688416 3.65132 0.74494 3.62449 0.807104L0.840784 7.26247C0.782147 7.3799 0.730444 7.5008 0.685945 7.62451C0.684086 7.62919 0.682513 7.63397 0.681258 7.63885C0.680003 7.64373 0.681258 7.64432 0.681258 7.64637C-0.128787 10.0317 1.89864 12.4161 4.33061 11.9384C5.43154 11.7222 6.34261 10.9374 6.73529 9.86715C6.86582 9.50421 6.93165 9.12042 6.92967 8.73388V3.8278H9.0746V8.73456C9.07262 9.1211 9.13845 9.50489 9.26898 9.86784C10.1364 12.2321 13.1899 12.7527 14.7652 10.805C15.4784 9.92333 15.6897 8.72685 15.323 7.64705L15.3203 7.64637ZM5.72517 9.49076C5.14573 11.0665 3.10982 11.412 2.06054 10.1128C1.58567 9.52477 1.4453 8.72728 1.69004 8.00773L1.81136 7.72561C2.58012 6.23638 4.64247 6.15373 5.5236 7.57684C5.73884 7.92448 5.85354 8.32692 5.85453 8.73798V8.74618C5.8545 9.00106 5.81071 9.25398 5.72517 9.4935V9.49076ZM13.0266 10.8003C11.6265 11.3226 10.1434 10.2657 10.1444 8.74618V8.73866C10.1505 7.05593 11.9417 6.01097 13.3686 6.85773C13.7164 7.06411 14.0002 7.36605 14.1875 7.72903L14.3089 8.01115C14.7059 9.14199 14.1333 10.3874 13.0266 10.8003Z" fill="white"/>
</svg>
