<svg width="10" height="12" viewBox="0 0 10 12" fill="none" xmlns="http://www.w3.org/2000/svg">
<path d="M2.22222 12C2.06481 12 1.93296 11.9424 1.82667 11.8272C1.72037 11.712 1.66704 11.5696 1.66667 11.4V6.51C1.16667 6.37 0.763889 6.085 0.458333 5.655C0.152778 5.225 0 4.74 0 4.2V0.600002C0 0.430002 0.0533334 0.287602 0.16 0.172802C0.266667 0.0580021 0.398519 0.000402069 0.555556 2.06896e-06C0.712593 -0.000397931 0.84463 0.0572021 0.951667 0.172802C1.0587 0.288402 1.11185 0.430802 1.11111 0.600002V3.6H1.66667V0.600002C1.66667 0.430002 1.72 0.287602 1.82667 0.172802C1.93333 0.0580021 2.06519 0.000402069 2.22222 2.06896e-06C2.37926 -0.000397931 2.5113 0.0572021 2.61833 0.172802C2.72537 0.288402 2.77852 0.430802 2.77778 0.600002V3.6H3.33333V0.600002C3.33333 0.430002 3.38667 0.287602 3.49333 0.172802C3.6 0.0580021 3.73185 0.000402069 3.88889 2.06896e-06C4.04593 -0.000397931 4.17796 0.0572021 4.285 0.172802C4.39204 0.288402 4.44519 0.430802 4.44444 0.600002V4.2C4.44444 4.74 4.29167 5.225 3.98611 5.655C3.68056 6.085 3.27778 6.37 2.77778 6.51V11.4C2.77778 11.57 2.72444 11.7126 2.61778 11.8278C2.51111 11.943 2.37926 12.0004 2.22222 12ZM7.77778 12C7.62037 12 7.48852 11.9424 7.38222 11.8272C7.27593 11.712 7.22259 11.5696 7.22222 11.4V6.285C6.72222 6.105 6.31944 5.7276 6.01389 5.1528C5.70833 4.578 5.55556 3.9254 5.55556 3.195C5.55556 2.305 5.77315 1.55 6.20833 0.930002C6.64352 0.310002 7.16667 2.06896e-06 7.77778 2.06896e-06C8.38889 2.06896e-06 8.91204 0.312402 9.34722 0.937202C9.78241 1.562 10 2.3196 10 3.21C10 3.94 9.84722 4.59 9.54167 5.16C9.23611 5.73 8.83333 6.105 8.33333 6.285V11.4C8.33333 11.57 8.28 11.7126 8.17333 11.8278C8.06667 11.943 7.93481 12.0004 7.77778 12Z" fill="white"/>
</svg>
