<svg width="18" height="12" viewBox="0 0 18 12" fill="none" xmlns="http://www.w3.org/2000/svg">
<path d="M1.27273 12C1.05379 12 0.870394 11.9232 0.722545 11.7696C0.574697 11.616 0.500515 11.4261 0.5 11.2V0.800002C0.5 0.573336 0.574182 0.383469 0.722545 0.230403C0.870909 0.0773361 1.0543 0.000536092 1.27273 2.75862e-06C1.49115 -0.000530574 1.6748 0.0762695 1.82368 0.230403C1.97256 0.384536 2.04648 0.574403 2.04545 0.800002V8H8.22727V3.2C8.22727 2.76 8.37873 2.38347 8.68164 2.0704C8.98455 1.75734 9.34824 1.60054 9.77273 1.6H14.4091C15.2591 1.6 15.9867 1.91334 16.592 2.54C17.1973 3.16667 17.5 3.92 17.5 4.8V11.2C17.5 11.4267 17.4258 11.6168 17.2775 11.7704C17.1291 11.924 16.9457 12.0005 16.7273 12C16.5088 11.9995 16.3255 11.9227 16.1771 11.7696C16.0287 11.6165 15.9545 11.4267 15.9545 11.2V9.6H2.04545V11.2C2.04545 11.4267 1.97127 11.6168 1.82291 11.7704C1.67455 11.924 1.49115 12.0005 1.27273 12ZM5.13636 7.2C4.49242 7.2 3.94508 6.96667 3.49432 6.5C3.04356 6.03333 2.81818 5.46667 2.81818 4.8C2.81818 4.13333 3.04356 3.56667 3.49432 3.1C3.94508 2.63333 4.49242 2.4 5.13636 2.4C5.7803 2.4 6.32765 2.63333 6.77841 3.1C7.22917 3.56667 7.45455 4.13333 7.45455 4.8C7.45455 5.46667 7.22917 6.03333 6.77841 6.5C6.32765 6.96667 5.7803 7.2 5.13636 7.2Z" fill="white"/>
</svg>
